<?xml version="1.0" encoding="UTF-8"?>
<svg version="1.1" xmlns="http://www.w3.org/2000/svg" width="512" height="512">
<path d="M0 0 C4.91893774 4.33353093 9.77369371 8.71274158 14.52734375 13.2265625 C15.06149902 13.73203613 15.5956543 14.23750977 16.14599609 14.75830078 C24.44404761 22.66672611 31.70349525 31.02385171 38.52734375 40.2265625 C38.95112305 40.78956055 39.37490234 41.35255859 39.81152344 41.93261719 C76.81711047 91.2259933 92.48749745 154.77368736 84.00610352 215.76342773 C78.56194032 250.30704771 66.55495652 284.38145191 46.52734375 313.2265625 C46.00946289 313.97599121 45.49158203 314.72541992 44.95800781 315.49755859 C37.44635359 326.26075492 29.387848 336.18563932 20.18261719 345.54052734 C18.59609359 347.15653501 17.0325888 348.79196011 15.47265625 350.43359375 C8.38885835 357.80612071 0.72297498 364.13017107 -7.47265625 370.2265625 C-8.03710449 370.65179199 -8.60155273 371.07702148 -9.18310547 371.51513672 C-39.87526731 394.55418807 -75.70609899 408.8925487 -113.47265625 415.2265625 C-114.68179687 415.4328125 -115.8909375 415.6390625 -117.13671875 415.8515625 C-172.89806503 424.15629587 -234.1994738 410.35475895 -280.47265625 378.2265625 C-281.22208496 377.70868164 -281.97151367 377.19080078 -282.74365234 376.65722656 C-293.50684867 369.14557234 -303.43173307 361.08706675 -312.78662109 351.88183594 C-314.40262876 350.29531234 -316.03805386 348.73180755 -317.6796875 347.171875 C-325.05221446 340.0880771 -331.37626482 332.42219373 -337.47265625 324.2265625 C-338.11050049 323.37989014 -338.11050049 323.37989014 -338.76123047 322.51611328 C-361.79101358 291.83629842 -376.22798083 255.99642903 -382.47265625 218.2265625 C-382.6010791 217.50339844 -382.72950195 216.78023438 -382.86181641 216.03515625 C-392.78669953 158.40142936 -376.22967621 95.71642163 -343.35546875 48.1640625 C-341.43952554 45.48025099 -339.47777908 42.84424831 -337.47265625 40.2265625 C-336.85003906 39.41058594 -336.22742188 38.59460938 -335.5859375 37.75390625 C-330.24100949 30.91283206 -324.44741951 24.51537886 -318.47265625 18.2265625 C-317.96573242 17.69095703 -317.45880859 17.15535156 -316.93652344 16.60351562 C-309.02963777 8.30695811 -300.67364137 1.04913141 -291.47265625 -5.7734375 C-290.9096582 -6.1972168 -290.34666016 -6.62099609 -289.76660156 -7.05761719 C-256.89951489 -31.73163898 -218.15062443 -46.59575294 -177.47265625 -51.7734375 C-176.75513184 -51.86915039 -176.03760742 -51.96486328 -175.29833984 -52.06347656 C-113.59269428 -59.34137769 -47.48595921 -40.24233832 0 0 Z M-225.203125 75.58203125 C-231.7303589 83.1877754 -234.59010412 91.43727288 -234.61309814 101.28396606 C-234.61606927 101.99494977 -234.61904039 102.70593347 -234.62210155 103.43846214 C-234.63077374 105.82112862 -234.63229556 108.20374477 -234.63378906 110.58642578 C-234.63841839 112.2949077 -234.6434432 114.0033886 -234.64883423 115.71186829 C-234.66195163 120.35471639 -234.66840223 124.99755003 -234.67284489 129.64041376 C-234.67577746 132.54312363 -234.67988268 135.44582956 -234.68434906 138.34853745 C-234.69802398 147.43613451 -234.70768993 156.52372256 -234.71155095 165.6113292 C-234.71602793 176.09047987 -234.73355912 186.56949986 -234.76255155 197.04861081 C-234.78419795 205.15494048 -234.79425686 213.26123348 -234.79559207 221.36759174 C-234.79663823 226.20585777 -234.80250553 231.04400096 -234.82041168 235.88223648 C-234.83694292 240.43769156 -234.83902342 244.99293214 -234.83027267 249.5484066 C-234.82950492 251.21482482 -234.83381024 252.8812548 -234.84373093 254.54764366 C-234.91777021 267.76590729 -233.84274611 279.2581089 -224.5 289.359375 C-215.88558263 297.59396797 -208.16650986 299.6553116 -196.37890625 299.7578125 C-187.12702379 298.49955649 -179.36172314 293.64737029 -171.47265625 288.9140625 C-169.34546626 287.65554968 -167.21784722 286.39776183 -165.08984375 285.140625 C-163.45354004 284.17044434 -163.45354004 284.17044434 -161.78417969 283.18066406 C-156.41159072 280.01034542 -151.00476035 276.90002709 -145.59765625 273.7890625 C-143.41272096 272.53001638 -141.22782532 271.27090147 -139.04296875 270.01171875 C-137.95790039 269.38668457 -136.87283203 268.76165039 -135.75488281 268.11767578 C-130.32605683 264.98976102 -124.89946344 261.85797802 -119.47265625 258.7265625 C-117.30600042 257.47654371 -115.13933375 256.22654372 -112.97265625 254.9765625 C-111.36390625 254.0484375 -111.36390625 254.0484375 -109.72265625 253.1015625 C-99.97265625 247.4765625 -99.97265625 247.4765625 -96.72045898 245.6003418 C-94.5610623 244.3545048 -92.40171956 243.10857432 -90.24243164 241.86254883 C-83.58396924 238.02045169 -76.92336215 234.18210214 -70.26147461 230.34594727 C-66.98619596 228.45789598 -63.71355118 226.56535085 -60.44140625 224.671875 C-56.76392886 222.54422507 -53.07810181 220.43338316 -49.37890625 218.34375 C-36.65684191 211.11233176 -27.29224484 204.68532827 -22.47265625 190.2265625 C-21.661223 178.50733799 -22.2550054 169.21209691 -29.78515625 159.6640625 C-34.79001881 154.4412023 -40.76338327 151.10092072 -47.01220703 147.609375 C-49.79276939 146.04665371 -52.55315218 144.45144205 -55.3125 142.8515625 C-60.88342802 139.62205142 -66.46315978 136.40813464 -72.04541016 133.19824219 C-77.52421422 130.04631018 -82.99826738 126.88615453 -88.47265625 123.7265625 C-90.63929851 122.4765202 -92.80596522 121.22652026 -94.97265625 119.9765625 C-133.97265625 97.4765625 -133.97265625 97.4765625 -137.2265625 95.59912109 C-139.37999134 94.35688288 -141.53363509 93.11501713 -143.6875 91.87353516 C-148.7147238 88.97526447 -153.73986627 86.07358178 -158.75708008 83.15802002 C-160.52240836 82.13240622 -162.28844096 81.10801586 -164.0546875 80.08398438 C-166.26181945 78.80384784 -168.46764548 77.52145584 -170.671875 76.23632812 C-189.54622196 65.300807 -207.4314986 58.70598287 -225.203125 75.58203125 Z " fill="#000000" transform="translate(405.47265625,73.7734375)"/>
</svg>
